<?xml version="1.0" encoding="UTF-8"?>
<svg id="Layer_1" xmlns="http://www.w3.org/2000/svg" version="1.1" viewBox="0 0 1000 1000">
  <!-- Generator: Adobe Illustrator 29.1.0, SVG Export Plug-In . SVG Version: 2.1.0 Build 142)  -->
  <defs>
    <style>
      .st0 {
        fill: #4378bc;
      }

      .st1 {
        fill: #fff;
      }

      .st2, .st3 {
        fill: #1aa049;
      }

      .st3 {
        font-family: Arial-BoldMT, Arial;
        font-size: 46.53px;
        font-weight: 700;
      }
    </style>
  </defs>
  <path class="st2" d="M154.72,175.09c246.6,133.2,343.36,354.24,316.67,647.67,47.08-335.98,146.47-625.82,418.24-763.59-165.3,43.63-310.55,124.4-412.26,253.33-65.75-63.69-196.16-120.56-322.64-137.42Z"/>
  <g>
    <path class="st0" d="M398,500.43c-14.99-14.19-35.51-22.5-57.76-21.47-43.42,2.02-76.97,38.85-74.95,82.26,1.49,31.99,21.88,58.64,49.88,69.63-1.2.1-2.39.18-3.6.23-53.51,2.49-98.9-38.86-101.39-92.37-2.49-53.51,38.87-98.9,92.38-101.39,43.23-2.01,81.15,24.59,95.43,63.1Z"/>
    <path class="st0" d="M321.85,631.04c20.43,3,39.65,13.98,52.6,32.09,25.28,35.36,17.1,84.51-18.25,109.78-26.05,18.63-59.61,19.09-85.57,3.89.66,1,1.34,1.99,2.04,2.97,31.15,43.57,91.72,53.65,135.3,22.5,43.57-31.15,53.65-91.73,22.5-135.3-25.17-35.2-69.53-48.53-108.62-35.93Z"/>
  </g>
  <g>
    <path class="st0" d="M572.73,502.83c14.99-14.19,35.51-22.5,57.76-21.47,43.42,2.02,76.97,38.85,74.95,82.26-1.49,31.99-21.88,58.64-49.88,69.63,1.2.1,2.39.18,3.6.23,53.51,2.49,98.9-38.86,101.39-92.37,2.49-53.51-38.87-98.9-92.38-101.39-43.23-2.01-81.15,24.59-95.43,63.1Z"/>
    <path class="st0" d="M648.88,633.44c-20.43,3-39.65,13.98-52.6,32.09-25.28,35.36-17.1,84.51,18.25,109.78,26.05,18.63,59.61,19.09,85.57,3.89-.66,1-1.34,1.99-2.04,2.97-31.15,43.57-91.72,53.65-135.3,22.5-43.57-31.15-53.65-91.73-22.5-135.3,25.17-35.2,69.53-48.53,108.62-35.93Z"/>
  </g>
  <circle class="st2" cx="464.81" cy="190.62" r="74.42"/>
  <circle class="st1" cx="464.81" cy="190.62" r="62.41"/>
  <text class="st3" transform="translate(152.45 887.8)"><tspan x="0" y="0">SUSTAINABLE TRAVEL SERVICE</tspan></text>
  <path class="st1" d="M190.51,187.98c114.34,23.91,219.52,69.54,289.14,136.64,107.08-128.24,229.79-200.05,361.12-247.05-179.29,111.22-309.22,303.44-358.07,642.33-1.25-197.16-55.37-383.4-292.19-531.92Z"/>
</svg>